<svg width="66" height="18" viewBox="0 0 66 18" fill="none" xmlns="http://www.w3.org/2000/svg">
<path d="M2.77344 3.82812V13.8281H8.61719V15H1.32812V3.82812H2.77344ZM11.2422 10.8672C11.2422 12.8411 12.0625 13.8281 13.7031 13.8281C15.3438 13.8281 16.1641 12.8411 16.1641 10.8672C16.1641 8.9349 15.3438 7.96875 13.7031 7.96875C12.0625 7.96875 11.2422 8.9349 11.2422 10.8672ZM9.79688 10.8984C9.79688 8.16406 11.099 6.79688 13.7031 6.79688C16.3073 6.79688 17.6094 8.16406 17.6094 10.8984C17.6094 13.6276 16.3073 14.9922 13.7031 14.9922C11.1094 14.9922 9.80729 13.6276 9.79688 10.8984ZM19.1719 12.5234C19.1719 10.8411 20.2812 10 22.5 10C23.2135 10 23.9271 10.0521 24.6406 10.1562V9.38281C24.6406 8.4401 23.9036 7.96875 22.4297 7.96875C21.5859 7.96875 20.7214 8.09896 19.8359 8.35938V7.1875C20.7214 6.92708 21.5859 6.79688 22.4297 6.79688C24.8672 6.79688 26.0859 7.64583 26.0859 9.34375V15H25.2734L24.7734 14.1875C23.9557 14.7292 23.0651 15 22.1016 15C20.1484 15 19.1719 14.1745 19.1719 12.5234ZM22.5 11.1719C21.2448 11.1719 20.6172 11.6146 20.6172 12.5C20.6172 13.3854 21.112 13.8281 22.1016 13.8281C23.1016 13.8281 23.9479 13.5625 24.6406 13.0312V11.3281C23.9271 11.224 23.2135 11.1719 22.5 11.1719ZM33.9453 8.46875C33.362 8.1875 32.6953 8.04688 31.9453 8.04688C30.2943 8.04688 29.4688 8.92448 29.4688 10.6797C29.4688 12.7578 30.2943 13.7969 31.9453 13.7969C32.6953 13.7969 33.362 13.6953 33.9453 13.4922V8.46875ZM35.3906 14.5078C34.3958 14.8359 33.1693 15 31.7109 15C29.2682 15 28.0469 13.5781 28.0469 10.7344C28.0469 8.10938 29.3438 6.79688 31.9375 6.79688C32.6458 6.79688 33.3151 6.92708 33.9453 7.1875V3.82812H35.3906V14.5078ZM39.3359 6.79688V15H37.8906V6.79688H39.3359ZM39.3359 3.82812V5.19531H37.8906V3.82812H39.3359ZM41.8438 15V6.79688H42.8203L43.0781 7.84375C43.9167 7.14583 44.8385 6.79688 45.8438 6.79688C47.8906 6.79688 48.9141 7.8151 48.9141 9.85156V15H47.4688V9.82812C47.4688 8.60938 46.862 8 45.6484 8C44.8203 8 44.0339 8.34635 43.2891 9.03906V15H41.8438ZM56.75 8.1875C56.2552 8.0625 55.6432 8 54.9141 8C53.1693 8 52.2969 8.94531 52.2969 10.8359C52.2969 12.7786 53.1224 13.75 54.7734 13.75C55.5234 13.75 56.1823 13.6094 56.75 13.3281V8.1875ZM58.1953 15C58.1953 16.9792 56.9375 17.9688 54.4219 17.9688C53.4115 17.9688 52.5156 17.8385 51.7344 17.5781V16.4062C52.5312 16.6667 53.4323 16.7969 54.4375 16.7969C55.9792 16.7969 56.75 16.1979 56.75 15V14.6094C56.1354 14.8698 55.474 15 54.7656 15C52.1719 15 50.875 13.6172 50.875 10.8516C50.875 8.14844 52.2422 6.79688 54.9766 6.79688C56.0859 6.79688 57.1589 6.90885 58.1953 7.13281V15ZM61.6016 13.5547V15H60.1562V13.5547H61.6016ZM64.6172 13.5547V15H63.1719V13.5547H64.6172Z" fill="white"/>
</svg>
