<svg width="58" height="15" viewBox="0 0 58 15" fill="none" xmlns="http://www.w3.org/2000/svg">
<path d="M1.77344 0.828125V10.8281H7.61719V12H0.328125V0.828125H1.77344ZM10.2422 7.86719C10.2422 9.84115 11.0625 10.8281 12.7031 10.8281C14.3438 10.8281 15.1641 9.84115 15.1641 7.86719C15.1641 5.9349 14.3438 4.96875 12.7031 4.96875C11.0625 4.96875 10.2422 5.9349 10.2422 7.86719ZM8.79688 7.89844C8.79688 5.16406 10.099 3.79688 12.7031 3.79688C15.3073 3.79688 16.6094 5.16406 16.6094 7.89844C16.6094 10.6276 15.3073 11.9922 12.7031 11.9922C10.1094 11.9922 8.80729 10.6276 8.79688 7.89844ZM18.1719 9.52344C18.1719 7.84115 19.2812 7 21.5 7C22.2135 7 22.9271 7.05208 23.6406 7.15625V6.38281C23.6406 5.4401 22.9036 4.96875 21.4297 4.96875C20.5859 4.96875 19.7214 5.09896 18.8359 5.35938V4.1875C19.7214 3.92708 20.5859 3.79688 21.4297 3.79688C23.8672 3.79688 25.0859 4.64583 25.0859 6.34375V12H24.2734L23.7734 11.1875C22.9557 11.7292 22.0651 12 21.1016 12C19.1484 12 18.1719 11.1745 18.1719 9.52344ZM21.5 8.17188C20.2448 8.17188 19.6172 8.61458 19.6172 9.5C19.6172 10.3854 20.112 10.8281 21.1016 10.8281C22.1016 10.8281 22.9479 10.5625 23.6406 10.0312V8.32812C22.9271 8.22396 22.2135 8.17188 21.5 8.17188ZM32.9453 5.46875C32.362 5.1875 31.6953 5.04688 30.9453 5.04688C29.2943 5.04688 28.4688 5.92448 28.4688 7.67969C28.4688 9.75781 29.2943 10.7969 30.9453 10.7969C31.6953 10.7969 32.362 10.6953 32.9453 10.4922V5.46875ZM34.3906 11.5078C33.3958 11.8359 32.1693 12 30.7109 12C28.2682 12 27.0469 10.5781 27.0469 7.73438C27.0469 5.10938 28.3438 3.79688 30.9375 3.79688C31.6458 3.79688 32.3151 3.92708 32.9453 4.1875V0.828125H34.3906V11.5078ZM38.3359 3.79688V12H36.8906V3.79688H38.3359ZM38.3359 0.828125V2.19531H36.8906V0.828125H38.3359ZM40.8438 12V3.79688H41.8203L42.0781 4.84375C42.9167 4.14583 43.8385 3.79688 44.8438 3.79688C46.8906 3.79688 47.9141 4.8151 47.9141 6.85156V12H46.4688V6.82812C46.4688 5.60938 45.862 5 44.6484 5C43.8203 5 43.0339 5.34635 42.2891 6.03906V12H40.8438ZM55.75 5.1875C55.2552 5.0625 54.6432 5 53.9141 5C52.1693 5 51.2969 5.94531 51.2969 7.83594C51.2969 9.77865 52.1224 10.75 53.7734 10.75C54.5234 10.75 55.1823 10.6094 55.75 10.3281V5.1875ZM57.1953 12C57.1953 13.9792 55.9375 14.9688 53.4219 14.9688C52.4115 14.9688 51.5156 14.8385 50.7344 14.5781V13.4062C51.5312 13.6667 52.4323 13.7969 53.4375 13.7969C54.9792 13.7969 55.75 13.1979 55.75 12V11.6094C55.1354 11.8698 54.474 12 53.7656 12C51.1719 12 49.875 10.6172 49.875 7.85156C49.875 5.14844 51.2422 3.79688 53.9766 3.79688C55.0859 3.79688 56.1589 3.90885 57.1953 4.13281V12Z" fill="white"/>
</svg>
